<?xml version="1.0" encoding="utf-8"?>
<!-- Generator: Adobe Illustrator 21.0.2, SVG Export Plug-In . SVG Version: 6.00 Build 0)  -->
<svg version="1.1" id="Livello_1" xmlns="http://www.w3.org/2000/svg" xmlns:xlink="http://www.w3.org/1999/xlink" x="0px" y="0px"
	 viewBox="0 0 149.8 52.8" style="enable-background:new 0 0 149.8 52.8;" xml:space="preserve">
<style type="text/css">
	.st0{fill:#5AB7B2;}
	.st1{fill:#FFFFFF;}
</style>
<path class="st0" d="M12.2,3.8c0,0-0.5-0.3-0.4-0.7s0.4-0.5,0.4-0.5s0-0.5,0.2-0.7c0.2-0.3,0.7-0.3,0.7-0.3s0-0.4,0.3-0.6
	s0.8-0.2,0.8-0.2s0.2-0.4,0.6-0.4c0.4-0.1,0.6,0.1,0.6,0.1S15.7,0,16.2,0c0.6,0,0.9,0.4,0.9,0.4s0.3-0.2,0.8-0.1
	c0.3,0.1,0.5,0.4,0.5,0.4s0.5-0.1,0.8,0.1c0.3,0.3,0.3,0.5,0.3,0.5s0.3-0.1,0.6,0.3c0.3,0.3,0.2,0.7,0.2,0.7s0.5,0,0.5,0.4
	c0.1,0.6-0.2,0.7-0.3,0.8c-0.1,0.1-0.2,0.9-0.5,1.3c-0.3,0.4-0.9,0.5-1,0.6c-0.2,0.1-0.1,0.5-0.3,0.7c-0.2,0.2-0.6,0.7-2.3,0.7
	c-2.1,0-2.5-0.7-2.5-0.7s-0.2-0.5-0.3-0.6c-0.2-0.2-0.5-0.3-0.5-0.3s-0.5-0.3-0.6-0.5C12.2,4.4,12.2,3.8,12.2,3.8z M12.2,3.2
	c0,0.1,0.1,0.1,0.1,0.1c0.1,0,0.1-0.1,0.1-0.1c0-0.1-0.1-0.1-0.1-0.1C12.3,3.1,12.2,3.1,12.2,3.2z M12.8,2.4c0,0.1,0.1,0.2,0.2,0.2
	s0.2-0.1,0.2-0.2c0-0.1-0.1-0.2-0.2-0.2C12.9,2.3,12.8,2.3,12.8,2.4z M13.7,1.7c0,0.1,0.1,0.3,0.2,0.3s0.3-0.1,0.3-0.3
	c0-0.1-0.1-0.3-0.3-0.3C13.8,1.4,13.7,1.5,13.7,1.7z M14.7,1.3c0,0.2,0.1,0.3,0.3,0.3c0.2,0,0.3-0.1,0.3-0.3C15.3,1.1,15.2,1,15,1
	C14.9,0.9,14.7,1.1,14.7,1.3z M15.9,1c0,0.2,0.2,0.4,0.4,0.4s0.4-0.2,0.4-0.4s-0.2-0.4-0.4-0.4C16,0.6,15.9,0.7,15.9,1z M20.2,3
	c0,0.1,0.1,0.1,0.1,0.1c0.1,0,0.1-0.1,0.1-0.1c0-0.1-0.1-0.1-0.1-0.1C20.3,2.8,20.2,2.9,20.2,3z M19.4,2.2c0,0.1,0.1,0.2,0.2,0.2
	s0.2-0.1,0.2-0.2c0-0.1-0.1-0.2-0.2-0.2S19.4,2.1,19.4,2.2z M18.5,1.5c0,0.1,0.1,0.3,0.3,0.3c0.1,0,0.3-0.1,0.3-0.3
	c0-0.1-0.1-0.3-0.3-0.3S18.5,1.3,18.5,1.5z M17.3,1.2c0,0.2,0.1,0.3,0.3,0.3c0.2,0,0.3-0.1,0.3-0.3c0-0.2-0.1-0.3-0.3-0.3
	C17.5,0.9,17.3,1,17.3,1.2z M13.7,4.2L14,4.1l-0.3-0.6V4.2z M14.9,3.9c0.1,0,0.4-0.1,0.4-0.1S15,2.9,15,2.8
	C14.9,2.9,14.8,3.9,14.9,3.9z M16.1,2.4c0,0,0.2,1.2,0.2,1.1c0-0.1,0.2-1.1,0.2-1.1H16.1z M17.4,3.8c0.1,0,0.4,0,0.4,0
	s-0.1-1-0.2-1.1C17.6,2.8,17.4,3.8,17.4,3.8z M19,4.1V3.4L18.8,4L19,4.1z M14.5,5c0,0-0.3,0.1-0.2,0.3c0,0.2,0.3,0.1,0.3,0.1
	s0.6-0.3,1.8-0.3c1.2-0.1,1.8,0.2,1.8,0.2s0.1,0.1,0.2,0s0-0.2,0-0.2s-0.7-0.4-2.1-0.4C15.4,4.7,14.5,5,14.5,5z M14.9,6
	c0,0.2,0.7,0.3,1.5,0.3c0.8,0,1.5-0.2,1.5-0.3c0-0.2-0.7-0.3-1.5-0.3C15.5,5.7,14.9,5.8,14.9,6z M1.7,25.4c0,0-0.9,0.4-1.1,1.1
	c-0.1,0.3-0.1,1-0.1,1s0.2,0.7,0.1,1.7c-0.1,0.7-0.1,1.3-0.1,1.3s5.9-3,16.1-3s15.6,2.7,15.6,2.7s-0.1-1.4-0.1-1.8
	c0-0.4,0-1.2,0-1.2s0.2-0.8-0.2-1.3c-0.3-0.4-1.4-1-1.4-1s-4.4-2.5-13.9-2.5C7.2,22.4,1.7,25.4,1.7,25.4z M1,38.6c0,0,0.6-0.8,0.8-1
	c0.1-0.2,0.5-0.6,0.5-0.8s-0.4-0.4-0.5-0.3c-0.1,0-0.2,0.2-0.6,0.9C0.9,38,1,38.6,1,38.6z M0.9,35.3c0,0.1,1.1,0.5,1.1,0.4
	c0,0-0.1-1.4-0.2-1.5C1.8,34.2,0.9,35.2,0.9,35.3z M1,32.6v1.6c0,0,1.1-0.7,1.1-0.9C2.1,33.1,1,32.6,1,32.6z M0.6,31.3
	C0.5,31.5,2,32.5,2,32.5c0.1-0.1,0.1-1.8,0-1.8C2,30.5,0.6,31.1,0.6,31.3z M30.7,36c0,0-0.3,0.1-0.3,0.6c0,0.3,0.4,0.6,0.6,0.8
	c0.2,0.2,0.7,0.9,0.7,0.9s-0.1-0.6-0.3-1.4C31.1,36.3,30.7,36,30.7,36z M30.7,34c-0.1,0.1-0.1,0.5-0.1,0.6c0,0.2-0.1,0.7,0,0.8
	s1.1-0.3,1.1-0.5S30.8,33.9,30.7,34z M30.6,32.9c0,0.2,1.1,0.9,1.1,0.9s0.1-1.5-0.1-1.5C31.4,32.3,30.6,32.8,30.6,32.9z M30.6,32
	c0.1,0.1,1.4-0.9,1.4-1.1c0-0.2-1.3-0.7-1.4-0.7C30.4,30.4,30.5,31.9,30.6,32z M21.2,43c0,0,0.1,0.5,0.2,0.9
	c0.1,0.3,0.1,1.2,0.1,1.2s0.1-0.8,0.1-1.3s-0.3-1-0.3-1L21.2,43z M11.2,43c0,0-0.1,0.4-0.2,1.1c-0.1,0.7,0.2,1.4,0.2,1.4
	s0-1,0.1-1.3c0.1-0.5,0.2-1,0.2-1L11.2,43z M16.1,49.7c0,0,0.1,1.1,0.2,1c0.1,0,0.1-1,0.1-1H16.1z M15.7,46.8c0,0-0.1,0.5-0.3,0.9
	c-0.1,0.4-0.7,1.1-0.7,1.1s0.5-0.2,0.9-0.8c0.3-0.5,0.4-1.1,0.4-1.1L15.7,46.8z M15.6,43.7c0,0,0,0.4-0.2,1
	c-0.1,0.3-0.5,1.1-0.5,1.1s0.5-0.2,0.9-0.9c0.3-0.4,0.2-1.1,0.2-1.1L15.6,43.7z M15.6,38.1c0,0-0.1,0.9-0.4,1.6
	c-0.3,0.8-0.7,1.7-0.7,1.7s0.5-0.3,1.2-1.7c0.3-0.6,0.4-1.6,0.4-1.6H15.6z M15.9,34.1c0,0-0.1,0.5-0.2,1.1c-0.2,0.6-0.4,1.2-0.4,1.2
	s0.5-0.5,0.7-1.3c0.1-0.4,0.3-1.1,0.3-1.1L15.9,34.1z M20.8,31.7c0,0,0.6,0.6,1.1,1.2c0.3,0.4,1,1.6,1,1.6s-0.4-1.4-0.9-2.2
	c-0.4-0.6-0.9-0.9-0.9-0.9L20.8,31.7z M22.6,28.5c0,0,0.4,1.1,0.5,1.4c0.5,1,0.9,1.3,0.9,1.3s-0.5-0.7-0.8-1.6l-0.3-1L22.6,28.5z
	 M24,28.7c0,0,0.4,0.9,1,1.9c0.6,1,1.6,1.9,1.6,1.9s-0.8-1-1.3-2.1c-0.3-0.7-0.7-1.7-0.7-1.7L24,28.7z M11.5,31.4
	c0,0-0.7,0.6-1.1,1.3c-0.3,0.5-0.7,2.1-0.7,2.1s0.7-1.3,1-1.7s1.1-1.2,1.1-1.2L11.5,31.4z M9.5,28.6c0,0-0.2,0.7-0.3,1.1
	c-0.2,0.4-0.7,1.6-0.7,1.6s0.6-0.6,0.9-1.5c0.3-0.7,0.5-1.3,0.5-1.3L9.5,28.6z M7.8,28.9l-0.7,1.8c-0.2,0.6-1.2,2.1-1.2,2.1
	s1-0.6,1.7-2.1c0.4-0.9,0.8-1.8,0.8-1.8H7.8z M14.6,16.8c0,0-0.3,0.4-0.6,0.7c-0.4,0.5-0.9,0.8-0.9,0.8s0.6-0.2,0.9-0.5
	s0.5-0.6,0.5-0.6v-0.4H14.6z M14.8,14.9c0,0-0.3,0.4-0.4,0.6c-0.2,0.2-0.5,0.6-0.5,0.6s0.4-0.2,0.5-0.3c0.1-0.1,0.3-0.2,0.3-0.2
	L14.8,14.9z M15,12.1c0,0-0.1,0.5-0.2,0.6c-0.1,0.3-0.3,0.7-0.3,0.7l0.4-0.6c0.1-0.1,0.2-0.4,0.2-0.4L15,12.1z M14.8,10.1
	c0,0,0.1-0.3,0-0.4c-0.1-0.1,0-0.1-0.7-0.1c-0.6,0-0.8,0.4-0.8,0.4s0.4-0.1,0.8-0.1C14.4,9.8,14.8,10.1,14.8,10.1z M16.2,9.6
	c0,0,0.1,0.1,0.4,0c0.1,0,0.2,0,0.3,0c0,0,0.1-0.3-0.1-0.3C16.7,9.3,16.2,9.6,16.2,9.6z M9.3,22.4c0,0-0.5-0.4-1.2-1.8
	s-0.2-3.1-0.2-3.1s-0.8,1-0.2,3.2c0.3,1.2,1.2,1.8,1.2,1.8L9.3,22.4z M4.3,23.7c0,0-0.7,0.1-1.4-0.2C2.5,23.4,1.6,23,1.6,23
	s0.6,0.5,1,0.7S3.4,24,3.4,24L4.3,23.7z M5.5,20.4c0,0-0.3,0.1-1.7-0.7c-1.4-0.7-2-2-2-2S2,19,3.5,20c1.1,0.8,2.1,0.9,2.1,0.9
	L5.5,20.4z M6.2,17.1c0,0-0.6-0.5-1.4-2C4.1,13.8,4,12.2,4,12.2s-0.3,1.4,0.6,3.2c0.6,1.3,1.5,2.2,1.5,2.2L6.2,17.1z M8,14.5
	l0.4-0.4c0,0-0.9-1.6-1.1-3C6.8,8.3,7.4,5.9,7.4,5.9s-1.2,2.4-0.7,5C7.3,13.4,8,14.5,8,14.5z M28.4,23.4l0.7,0.3
	c0,0,0.4-0.1,0.8-0.3c0.6-0.3,1.1-0.8,1.1-0.8s-1,0.4-1.3,0.5C29.2,23.3,28.4,23.4,28.4,23.4z M23.7,22.4c0,0,0.6-0.4,1.1-2
	c0.6-1.8-0.1-3-0.1-3s0.4,1.3-0.2,2.8c-0.4,1.1-1.4,2-1.4,2L23.7,22.4z M27,20.2l-0.1,0.6c0,0,0.8,0,2.2-1c1.5-1.1,1.7-2.2,1.7-2.2
	s-0.5,1.1-1.9,1.9C28.1,19.9,27,20.2,27,20.2z M26.2,16.8l0.1,0.6c0,0,0.7-0.5,1.6-2c0.8-1.5,0.7-3.1,0.7-3.1s0,1.3-1,2.9
	C27,16.1,26.2,16.8,26.2,16.8z M24.5,14.4c0,0,0.8-1.1,1.3-3.6c0.5-2.6-0.5-4.6-0.5-4.6s0.7,1.8,0,4.7C25,12.3,24.1,14,24.1,14
	L24.5,14.4z M22.8,2.1C22.9,2,24.7,2.6,26,4.7c1.7,2.8,1.3,5.5,1.3,5.5s0.4-0.3,0.7-1.5c0-0.2,1.6,1.1,1.9,3.8
	c0.2,1.9-0.7,3.7-0.7,3.7s0.6-0.3,1.2-1.1c0.7-1,0.5-1.9,0.6-1.9c0.1-0.2,1.5,1.5,1.2,3.6c-0.3,2.3-1.8,3.9-1.8,3.9s0.7-0.2,1.2-0.6
	c0.8-0.7,0.8-1.1,0.9-1.1c0.2,0,0.8,0.9,0.1,3.2c-0.4,1.2-1.6,2.3-1.6,2.3s1,0.6,1.2,0.9s0.6,0.8,0.5,1.3c0,0.5-0.2,1.8,0,2.9
	c0.1,0.5,0.2,1.1,0.1,1.4c-0.2,0.5-0.6,0.8-0.6,0.9c0,0.3-0.1,1.4,0.1,3.1c0,0.3,0,0.5-0.2,0.6c-0.2,0.2-0.6,0.3-0.6,0.5
	c0.1,0.2,0.5,0.7,0.6,1.5c0.2,1.7-0.4,2.3-0.4,2.3s-0.7-1.3-1-1.6c-1.3-1.3-1-1.8-1-1.8S30,35.6,30,35c0.1-1.2-0.1-1.6-0.1-1.6
	s-0.1-0.3,0-0.9c0-0.3,0-1.7,0-1.9c0-0.3-0.1-0.4-0.3-0.4c-0.2-0.1-1.1-0.3-1.4-0.4c-0.1,0-0.1,0.5,0,0.7c0.2,0.4,0.4,0.5,0.4,0.6
	s-0.1,0.2-0.4,0.3c-0.4,0.1-0.7,0-0.7,0s0.1,0.5,0.5,1.1c0.5,0.9,1.1,1.3,1.1,1.3c0,0.1-0.1,0.5-1.3,0.5c-1,0-2.2-1.2-2.4-1.3
	c-0.3-0.1-0.7,0.2-1.3-0.1c-0.5-0.2-0.8-0.8-0.8-0.8s-0.2-0.3-0.4-0.4c-0.4-0.2-0.5-0.2-0.5-0.2s0.4,0.4,0.6,0.8
	c0.7,1.3,0.8,3.1,0.8,3.1s0.2,1.5,0.4,2.1c0.2,0.7,0.5,1.7,1,1.6c0.3-0.1,0.2-1.1,0.3-1.2c0.1-0.1,0.2-0.4,0.6-0.4
	c0.7-0.1,0.9,0.4,0.9,0.4c0,0.1-0.4,0.1-0.4,0.4c0,0.4,0.6,0.6,0.6,0.6s0.4,0.1,0.7,0.5c0.4,0.7,0.1,1,0.1,1c-0.1,0-0.2-0.2-0.4-0.3
	c-0.1-0.1-0.3-0.1-0.4,0c-0.2,0.1,0.3,0.5,0.4,0.7c0.3,1.1-0.4,1.3-0.4,1.3c-0.1,0.1,0-1.1-1-0.7c-0.7,0.2-0.2,1.2-0.2,1.2
	s-0.5,0.2-1-0.5c-0.3-0.4-0.1-0.9-0.4-0.9c-0.1,0-0.5,0.2-0.7,0.1c-0.5-0.2-0.6-1.4-0.6-1.4s0-1.3-0.3-1.9c-0.3-0.5-0.7-1.6-1.3-1.3
	c-0.5,0.2,0,0.6,0,0.7c0,0.1-1.3,0.5-2.2-1.3c-0.5-1-0.3-2.2-1-2.2c-0.4,0-0.6,0.9-0.3,1.8c0.2,0.9,1.1,1.8,1.1,1.9
	c0,0.1-0.4,0.3-1.1,0.4c-0.1,0-0.2,0-0.2,0.3c0.1,0.3,0.2,1.5,0.6,2.2c0.9,1.7,1.7,1.8,1.7,1.8s0.3,0.1,0.8,0
	c0.5-0.2,0.6-0.4,0.7-0.4s0.9,1.4,0.5,3.6c-0.3,2-2,2.8-2,2.8c-0.1-0.1,0.2-1.2-0.2-2.7c-0.4-1.3-1.2-2.1-1.7-1.8
	c-0.1,0.1-0.4,0.5,0.2,1.5c0.4,0.7,0.9,1.1,0.9,1.1s-0.2,0.3-0.7,0.4c-0.7,0.1-0.8,0-0.9,0.1s0.3,0.9,0.5,1.3
	c0.4,0.7,1.1,1.2,1.1,1.2s-0.2,0.4-0.8,0.5c-0.6,0.1-1.1,0-1.1,0s-0.2,0.6-0.4,1.2c-0.5,1.4-0.8,1.7-0.9,1.7s-0.6-0.6-0.9-1.8
	c-0.1-0.5-0.4-1.2-0.4-1.2s-0.5,0.1-0.9,0.1c-0.9-0.1-0.9-0.3-1-0.4c0-0.2,0.4-0.3,1.1-1.4c0.6-1,0.5-1.3,0.5-1.3s-0.6,0.1-0.9,0
	C13,46.7,13,46.4,13,46.4s0.7-0.4,1-1.1c0.3-0.7,0.5-1.3,0.1-1.5s-1.3,0.2-1.6,1.6c-0.5,1.7-0.3,2.9-0.3,2.9s-1.5-0.5-2-2.7
	s0.5-3.6,0.5-3.6s0.5,0.5,1,0.5c1.1,0,2-1.7,2-1.7s0.4-0.8,0.5-1.3c0.3-0.9,0.2-1.4,0.2-1.4s-0.4,0-0.7-0.1
	c-0.5-0.1-0.5-0.3-0.5-0.3s0.9-1,1.1-1.7c0.2-1.4,0.1-2-0.3-2c-0.6-0.1-0.5,1.2-0.8,1.8c-0.2,0.3-0.3,0.8-0.8,1.3
	c-0.9,0.7-1.5,0.4-1.5,0.4s0.3-0.5,0-0.7s-1.1,0.6-1.3,1.4c-0.2,1-0.3,2.2-0.3,2.2s-0.1,0.7-0.4,0.9c-0.4,0.2-0.7-0.1-0.9,0
	c-0.2,0.2,0.1,0.6-0.4,1.1c-0.7,0.6-1,0.3-1,0.3s0.6-0.9-0.1-1.2c-0.9-0.3-1,0.7-1,0.7c-0.1,0-0.6-0.4-0.4-1
	c0.1-0.6,0.6-0.8,0.4-1.1c-0.1-0.1-0.3-0.1-0.4,0c-0.2,0.1-0.3,0.4-0.3,0.4s-0.4-0.3-0.1-1c0.3-0.6,1.4-0.4,1.4-1
	c0-0.4-0.6-0.4-0.6-0.5s0.2-0.5,0.9-0.4c0.8,0,0.8,0.9,0.8,0.9s-0.1,0.7,0.3,0.7c0.4,0,0.9-0.2,1.3-3.4c0.3-3.5,1.4-4.3,1.4-4.3
	s-0.5,0-0.6,0.3c-0.1,0.2-0.4,0.6-0.4,0.6S9,32.7,8.7,32.9c-0.7,0.3-1.2,0.2-1.3,0.2c-0.2,0-0.7,0.6-1.3,0.9
	c-0.6,0.2-0.8,0.4-1.2,0.4c-0.8,0-1.1-0.4-1.1-0.4c0-0.1,0.8-0.7,1.1-1.4c0.3-0.7,0.5-1.1,0.5-1.1S5,31.6,4.7,31.6
	c-0.5,0-0.6-0.1-0.6-0.2c0-0.1,0.4-0.4,0.4-0.6c0.1-0.4,0-0.7,0-0.7s-0.6,0.1-1.4,0.4c-0.2,0.1-0.3,0.1-0.3,0.3s-0.1,1.8,0,2.7
	c0,0.2-0.1,0.4-0.1,0.5c0,0.2-0.1,0.9,0.3,2.9c0.1,0.5-0.2,0.9-0.9,1.6c-0.5,0.5-1,1.7-1.1,1.7s-0.6-0.5-0.4-2
	c0.1-0.7,0.7-1.8,0.7-1.8s-0.5-0.3-0.6-0.5c-0.2-0.3,0-2.6,0-3.2c0-0.3-0.1-0.5-0.1-0.5s-0.5-0.5-0.5-1c0-0.6,0.1-1.4,0.1-1.4
	s0.1-0.7,0.1-1.1c0-0.5-0.2-1.5,0-2.1C0.7,25.4,1.9,25,1.9,25s-1.1-1-1.5-2.1c-0.8-2-0.1-3.3,0-3.3s0.4,0.7,0.9,1.1
	c0.4,0.3,1,0.4,1,0.4s-1.7-1.8-1.8-3.6c-0.2-2.9,1-4.2,1.1-4.2s-0.1,0.9,0.5,1.9c0.5,0.8,1.3,1.3,1.3,1.3s-0.9-2.4-0.6-4.1
	c0.5-2.8,1.8-3.6,1.9-3.6c0.1,0.1,0.1,0.5,0.2,0.8c0.2,0.6,0.5,0.7,0.5,0.7s-0.2-2.1,0.5-4c1.2-3.2,3.9-4.2,4-4.1
	c0.1,0.2-1.1,2-0.6,4.4C9.7,8.4,10.1,9,10.1,9s0.2-1.3,0.4-1.8c0.6-1.3,1-1.7,1.1-1.7c0.1,0.1-0.4,3.1-0.2,5.2
	c0.2,2.2,0.5,4.4,0.5,4.8c-0.1,1.2-0.8,1.7-1.6,2.3c-0.5,0.4-0.5,1.3-0.2,1.7c1.1,1.2,1.9-0.2,1.9-0.2s-0.4-0.2-0.6-0.3
	c-0.3-0.2-0.3-0.4-0.3-0.4s0.7-0.2,1-0.6c0.6-0.6,0.8-1,0.8-1s-0.3-0.1-0.4-0.1c-0.1-0.1-0.3-0.1-0.3-0.3c0-0.1,0.4-0.3,1-1
	c0.4-0.5,0.6-1,0.6-1s-0.3,0-0.4-0.1c-0.2,0-0.3-0.1-0.3-0.1c0-0.1,0.8-1.2,1-2c0.3-0.8,0.2-1.4-0.2-1.6c-0.6-0.4-1.2,0.1-1.2,0.1
	s-0.2-0.8,0.1-1.3c0.4-0.4,0.7-0.5,1-0.5c0.2,0,0.2,0,0.3-0.1c0.1,0,0.3,0,0.5-0.1c0.2,0,0.5-0.3,0.7-0.4c0.5-0.3,1.2-0.1,1.2-0.1
	s0.5,0.1,1,0c1.3-0.1,1.7-0.8,1.9-0.8c0.2,0.1,0.1,0.8-0.1,1.1c-0.3,0.6-0.5,0.9-0.5,0.9s-0.1,0.3-0.1,0.5c0,0.4,0.2,0.6,0.2,0.8
	c0,0.3,0,0.4-0.2,1c0,0.2,0,0.4,0,0.6c0.2,0.9,0.9,1.8,0.9,1.9s-0.2,0.1-0.3,0.1c-0.2,0-0.4,0-0.4,0s0.2,0.7,0.6,1.1
	c0.5,0.6,1,0.9,1,1s-0.2,0.2-0.3,0.2C20,16.9,19.7,17,19.7,17s0.5,0.6,0.8,0.9c0.5,0.4,1.1,0.5,1.1,0.6s-0.1,0.3-0.3,0.4
	c-0.2,0.2-0.5,0.3-0.5,0.3s0.2,0.8,1,0.7c1,0,1.1-1.1,1.1-1.1s0-0.9-0.9-1.5c-0.9-0.7-1-2-1-2s0.2-1.6,0.4-2.8
	c0.5-3.1-0.1-6.9-0.1-6.9c0.1,0,0.3-0.1,1.1,1.6C22.7,7.9,22.8,9,22.8,9s0.8-1.4,0.8-3.2C23.6,3.6,22.8,2.2,22.8,2.1z M1.7,25.8
	c0-0.1,1.1-0.5,1.1-0.5s0.1,0.4,0,0.5c0,0-0.6,0.3-0.7,0.3v1c0.1,0,0.6-0.2,0.7-0.2c0.1,0,0,0.5,0,0.5l-0.7,0.3v1.1
	c0,0,0.6-0.2,0.7-0.2c0,0,0.1,0.4,0,0.4c0,0.1-1.1,0.5-1.2,0.5C1.8,29.4,1.7,25.9,1.7,25.8z M3.9,25.4v2.8l0.5-0.1
	c0,0,0.1-0.1,0.2-0.1v-0.2l-0.1-2.5c0,0,0-0.1-0.1-0.2c-0.1,0-0.1,0-0.1,0L3.9,25.4z M3.5,29l-0.1-3.8l1.1-0.4c0,0,0.2-0.1,0.4,0
	s0.2,0.3,0.2,0.3v3.1c0,0,0,0.2-0.1,0.4c-0.1,0.1-0.4,0.2-0.4,0.2L3.5,29z M20.3,23.1h0.5c0,0,0.1,3.9,0,3.9c0,0-0.4,0-0.5,0V23.1z
	 M23.6,27.4v-3.9c0,0,0.4,0,0.5,0.1s0.6,2,0.6,2s0-1.8,0-1.9s0.5,0,0.5,0.1c0,0,0.1,3.8,0,3.8s-0.5,0-0.5,0l-0.6-2.1v1.9
	C24,27.5,23.6,27.4,23.6,27.4z M26.6,24.1c0.3,0.1,0.9,0.1,0.9,0.9c0,0.3,0.1,0.7-0.2,0.6L27,25.5c0,0,0-0.5,0-0.6s0-0.3-0.6-0.3
	c-0.1,0,0,2.5,0,2.6c0,0.1,0.1,0.2,0.3,0.2s0.2,0,0.3,0c0-0.1,0-0.7,0-0.8c0.1,0,0.5,0,0.5,0.1s0,0.7,0,0.9s-0.1,0.5-0.6,0.4
	c-0.2,0-0.6,0-0.7-0.1c-0.1,0-0.5-0.2-0.5-0.7s0-2.6,0-2.9C25.7,24.1,26,23.9,26.6,24.1z M28,28.4c0-0.2-0.1-3.7,0-3.8
	c0,0,0.4,0,0.5,0.1c0,0.1,0,1.6,0,1.6l0.6,0.1c0,0,0-1.4,0-1.5s0.5,0.1,0.5,0.1s0.1,3.7,0,3.7l-0.5-0.1V27l-0.5-0.2v1.6
	C28.4,28.5,28,28.3,28,28.4z M30.3,25.3c0.1-0.1,0.5,0.1,0.5,0.2s0.1,3.6,0,3.7c-0.1,0-0.5-0.1-0.5-0.2C30.2,29,30.3,25.4,30.3,25.3
	z M6.1,24.8c0,0-0.1,0.1-0.1,0.3c0,0.2,0,1.7,0,2.2s0.2,0.4,0.4,0.3c0.3-0.1,0.4-0.2,0.4-0.4c0-0.1,0-2,0-2.3s-0.2-0.2-0.3-0.2
	C6.4,24.7,6.1,24.8,6.1,24.8z M5.5,24.8c0-0.4,0.3-0.5,0.4-0.6c0.2-0.1,0.4-0.1,0.7-0.2c0.4-0.1,0.5,0.2,0.5,0.4
	c0,0.2,0.1,2.8,0,3.1c0,0.3-0.3,0.5-0.5,0.5s-0.4,0.1-0.7,0.1s-0.5,0-0.5-0.4C5.5,27.6,5.5,25,5.5,24.8z M8.3,26.4
	c0.1,0,0.3-0.1,0.4-0.1c0-0.1-0.3-1.2-0.3-1.2S8.3,26.3,8.3,26.4z M7.6,27.8c0.1-0.2,0.6-3.9,0.6-4l0.5-0.1c0.1,0,0.8,3.7,0.8,3.8
	c0,0.1-0.4,0.1-0.5,0.1c0,0-0.1-0.7-0.2-0.7S8.2,27,8.2,27c0,0.1-0.1,0.7-0.1,0.7C8,27.8,7.6,27.8,7.6,27.8z M10.3,23.9
	c-0.1,0,0,0.9,0,1.1s0,0.2,0.2,0.2c0.3-0.1,0.4-0.1,0.4-0.3C10.9,23.6,10.9,23.8,10.3,23.9z M9.8,23.5c0,0,0.8-0.1,0.9-0.2
	c0.8-0.1,0.7,0.2,0.7,1.6c0,0.6-0.3,0.7-0.3,0.7l0.6,1.6c-0.1,0.1-0.5,0.1-0.5,0.1l-0.6-1.6h-0.2v1.7c-0.1,0.1-0.4,0.1-0.5,0.1
	C9.8,27.4,9.8,23.5,9.8,23.5z M12.5,23.6l0.1,3h0.5c0.2,0,0.2-0.3,0.2-0.3v-2.5c0,0,0-0.2-0.2-0.2L12.5,23.6z M12.1,27.2l-0.1-4
	l1.1-0.2c0,0,0.2-0.1,0.4,0c0.2,0.1,0.2,0.3,0.2,0.3l0.1,3.2c0,0,0,0.2-0.1,0.4c-0.1,0.1-0.4,0.2-0.4,0.2L12.1,27.2z M15.1,23.4
	c-0.4,0-0.3,0-0.3,0.5c0,0.3,0,1.5,0,2c0,0.5,0.1,0.5,0.3,0.5c0.3,0,0.4,0,0.4-0.5c0-0.3-0.1-1.5-0.1-2
	C15.4,23.5,15.4,23.4,15.1,23.4z M14.2,23.5c0-0.4,0.3-0.5,0.4-0.5c0.2,0,0.6,0,0.8,0c0.4,0,0.5,0.3,0.5,0.5s0,2.6,0,2.9
	c0,0.3-0.1,0.6-0.5,0.6c-0.1,0-0.4,0-0.6,0s-0.5-0.1-0.5-0.4C14.3,26.4,14.2,23.7,14.2,23.5z M18.6,25.1v1.4c0,0,0.2,0,0.4,0
	c0.2,0,0.2-0.2,0.2-0.3s0-0.7,0-0.8c0-0.2-0.1-0.3-0.2-0.3C18.9,25,18.6,25.1,18.6,25.1z M18.6,24.5c0,0,0.4,0,0.5,0
	s0.2-0.2,0.2-0.2v-0.6c0-0.1-0.1-0.2-0.2-0.2s-0.5,0-0.5,0V24.5z M18.1,26.9v-4c0,0,1,0,1.2,0s0.5,0.1,0.5,0.5s0,0.7,0,0.8
	c0,0.5-0.2,0.6-0.2,0.6s0.1,0.2,0.1,0.4s0,1.1,0,1.2c0,0.1,0,0.6-0.5,0.6C19,27,18.1,26.9,18.1,26.9z M22.4,25.9
	c0-0.1-0.2-1.2-0.2-1.2S22,25.8,22,25.9C22.1,25.9,22.3,25.9,22.4,25.9z M23.2,27.3c-0.1,0-0.4,0-0.5,0c0,0-0.1-0.6-0.1-0.7
	c0,0-0.5-0.1-0.6-0.1c0,0-0.1,0.6-0.2,0.6c0,0-0.5,0-0.5-0.1c0,0,0.6-3.8,0.7-3.8c0,0,0.5,0,0.5,0.1C22.5,23.4,23.2,27.1,23.2,27.3z
	"/>
<g>
	<path class="st1" d="M117.5,31c0,1.7-1.4,3.2-3.2,3.2c-1.8,0-3.2-1.4-3.2-3.2l0,0c0-0.1,0-12.4,0-12.5c0-1.8,1.4-3.2,3.2-3.2
		c1.8,0,3.2,1.4,3.2,3.2h4.2c0-4.1-3.3-7.4-7.3-7.4c-4.1,0-7.4,3.3-7.4,7.4V31c0,4.1,3.3,7.4,7.4,7.4s7.4-3.3,7.4-7.4
		C121.7,31,117.5,31,117.5,31z"/>
	<polygon class="st1" points="140.5,37.7 136.3,37.7 136.3,26.9 130.1,26.9 130.1,37.7 125.9,37.7 125.9,11.9 130.1,11.9 
		130.1,22.7 136.3,22.7 136.3,11.9 140.5,11.9 	"/>
	<polygon class="st1" points="102.7,37.7 98.5,37.7 98.5,26.9 92.2,18.8 92.2,37.7 88.1,37.7 88.1,11.9 92.2,11.9 98.5,19.9 
		98.5,11.9 102.7,11.9 	"/>
	<path class="st1" d="M84.1,37.7h-4.4l-0.9-4.2h-4.9L73,37.7h-4.3l5.6-25.9h4L84.1,37.7z M78,29.4l-1.6-7.8l-1.6,7.8H78z"/>
	<rect x="60.4" y="11.9" class="st1" width="4.2" height="25.9"/>
	<rect x="145.5" y="11.9" class="st1" width="4.2" height="25.9"/>
	<path class="st1" d="M51.4,19.3c0-1.4-0.3-2.4-0.9-2.9c-0.6-0.6-1.6-0.9-2.9-0.9h-3.2v7.3h3.2c1.3,0,2.3-0.3,2.9-0.9
		S51.4,20.7,51.4,19.3L51.4,19.3z M51.7,29.8c0-1.1-0.3-1.8-0.9-2.5c-0.7-0.8-1.5-1.1-2.5-1.1h-3.9v7.5h4.3c0.9,0,1.7-0.4,2.3-1.3
		C51.5,31.7,51.7,30.8,51.7,29.8L51.7,29.8z M55.5,30.3c0,4.9-1.8,7.5-6.1,7.5h-9V11.9h9.4c1.8,0,2.7,0.6,3.7,1.9
		c1,1.2,1.6,2.8,1.6,4.8c0,2.4-0.4,4.5-2.3,5.9C55,25.5,55.5,27.5,55.5,30.3L55.5,30.3z"/>
</g>
</svg>
